Coordinates
version=1
nRows=16
nColumns=33
inDegrees=yes

Units are S.I. units (second, meters, Newtons, ...)
Angles are in degrees.

endheader
time	ground_thorax_rot_x	ground_thorax_rot_y	ground_thorax_rot_z	ground_thorax_tx	ground_thorax_ty	ground_thorax_tz	clav_prot_r	clav_elev_r	scapula_abduction_r	scapula_elevation_r	scapula_upward_rot_r	scapula_winging_r	shoulder_elv_r	plane_of_elev_r	axial_rot_r	elbow_flexion_r	pro_sup_r	wrist_flex_r	wrist_dev_r	clav_prot_l	clav_elev_l	scapula_abduction_l	scapula_elevation_l	scapula_upward_rot_l	scapula_winging_l	shoulder_elv_l	plane_of_elev_l	axial_rot_l	elbow_flexion_l	pro_sup_l	wrist_flex_l	wrist_dev_l	
12.4500	-39.414284	4.727195	1.753067	92.310423	768.784687	-43.461273	-2.055865	-45.000000	45.000000	-45.000000	45.000000	-2279.086231	-2631.188340	145.028798	-180.000000	1430.179293	-294.367204	20.237506	15.176848	18.834100	27.313864	-44.999999	-45.000000	-45.000000	-3173.434780	-261.757306	21.127469	-180.000000	1794.928424	489.167453	10.600153	-9.364544	
12.4600	-39.423452	4.892268	1.743548	91.855162	768.552405	-43.376559	-2.013155	-45.000000	45.000000	-45.000000	45.000000	-2279.034619	-2631.060650	145.083783	-180.000000	1430.189332	-294.136563	20.219979	15.036530	18.838473	27.311801	-44.999997	-45.000000	-45.000000	-3173.432665	-261.767844	21.143654	-180.000000	1794.965018	489.150388	10.557503	-9.508167	
12.4700	-39.424844	5.039998	1.758665	91.372973	768.331607	-43.292551	-1.939269	-45.000000	45.000000	-45.000000	45.000000	-2278.982234	-2630.917535	145.136649	-180.000000	1430.181141	-293.894092	20.190279	14.855875	18.851493	27.309499	-44.999995	-45.000000	-45.000000	-3173.429022	-261.806169	21.157508	-180.000000	1795.023390	489.123144	10.511370	-9.767920	
12.4800	-39.426724	5.206241	1.728094	90.829648	768.134382	-43.208981	-1.903005	-45.000000	45.000000	-45.000000	45.000000	-2278.928275	-2630.801049	145.176062	-180.000000	1430.188438	-293.588158	20.187928	14.726673	18.849504	27.309136	-44.999991	-45.000000	-45.000000	-3173.412838	-261.810747	21.165213	-180.000000	1795.032286	489.160005	10.482497	-9.876163	
12.4900	-39.426858	5.375287	1.681902	90.219648	767.961694	-43.126513	-1.883615	-45.000000	45.000000	-45.000000	45.000000	-2278.874562	-2630.688431	145.210686	-180.000000	1430.204723	-293.238662	20.192229	14.612913	18.839706	27.310905	-44.999985	-45.000000	-45.000000	-3173.385659	-261.807628	21.172601	-180.000000	1795.023668	489.245783	10.444900	-9.935337	
12.5000	-39.425169	5.544794	1.622348	89.532030	767.815994	-43.045668	-1.865153	-45.000000	45.000000	-45.000000	45.000000	-2278.824928	-2630.581589	145.235621	-180.000000	1430.214502	-292.855364	20.204576	14.500611	18.823860	27.315030	-44.999972	-45.000000	-45.000000	-3173.350841	-261.799114	21.173002	-180.000000	1795.004319	489.380270	10.422450	-9.988455	
12.5100	-39.423777	5.707596	1.561166	88.762245	767.696529	-42.966968	-1.856846	-45.000000	45.000000	-45.000000	45.000000	-2278.779031	-2630.468866	145.262114	-180.000000	1430.228539	-292.458717	20.207669	14.393880	18.801815	27.321754	-44.999950	-45.000000	-45.000000	-3173.302319	-261.796108	21.176596	-180.000000	1794.981320	489.569231	10.372971	-10.028762	
12.5200	-39.421674	5.860446	1.507911	87.908693	767.601549	-42.890894	-1.831807	-45.000000	45.000000	-45.000000	45.000000	-2278.746906	-2630.348227	145.281860	-180.000000	1430.232499	-292.069767	20.208467	14.278252	18.778348	27.329646	-44.999911	-45.000000	-45.000000	-3173.250781	-261.802353	21.174614	-180.000000	1794.971828	489.804283	10.338004	-10.112498	
12.5300	-39.422005	6.006254	1.453096	86.969330	767.529652	-42.817779	-1.813098	-45.000000	45.000000	-45.000000	45.000000	-2278.725213	-2630.226051	145.298428	-180.000000	1430.233368	-291.703724	20.208427	14.175726	18.748315	27.341532	-44.999841	-45.000000	-45.000000	-3173.185118	-261.813829	21.174456	-180.000000	1794.960120	490.095023	10.282160	-10.187144	
12.5400	-39.422748	6.142077	1.403133	85.942771	767.480055	-42.748053	-1.779429	-45.000000	45.000000	-45.000000	45.000000	-2278.720870	-2630.101629	145.300721	-180.000000	1430.220556	-291.371747	20.218348	14.091409	18.717339	27.353012	-44.999715	-45.000000	-45.000000	-3173.116047	-261.828816	21.162660	-180.000000	1794.954913	490.430933	10.267418	-10.274622	
12.5500	-39.427066	6.270910	1.351871	84.827771	767.452008	-42.682235	-1.749500	-45.000000	45.000000	-45.000000	45.000000	-2278.731792	-2629.978619	145.294380	-180.000000	1430.204358	-291.081618	20.235762	14.031554	18.678816	27.368794	-44.999490	-45.000000	-45.000000	-3173.030626	-261.848502	21.153409	-180.000000	1794.947144	490.813832	10.226393	-10.335760	
12.5600	-39.433629	6.387688	1.310987	83.623709	767.444591	-42.621035	-1.706732	-45.000000	45.000000	-45.000000	44.999999	-2278.762529	-2629.850063	145.276251	-180.000000	1430.182634	-290.835910	20.256930	13.993431	18.640694	27.382755	-44.999087	-45.000000	-45.000000	-3172.944500	-261.875039	21.131764	-180.000000	1794.954999	491.230703	10.229239	-10.403450	
12.5700	-39.445782	6.500729	1.264020	82.330477	767.456559	-42.565283	-1.663477	-45.000000	45.000000	-45.000000	44.999999	-2278.808590	-2629.730304	145.247461	-180.000000	1430.149658	-290.639864	20.289936	13.968868	18.592625	27.403151	-44.998364	-45.000000	-45.000000	-3172.840428	-261.905896	21.113725	-180.000000	1794.957931	491.680377	10.193656	-10.457377	
12.5800	-39.459304	6.599264	1.232207	80.948294	767.486263	-42.515796	-1.609709	-45.000000	45.000000	-45.000000	44.999998	-2278.868304	-2629.601958	145.212022	-180.000000	1430.110600	-290.492122	20.313321	13.960614	18.547284	27.420393	-44.997072	-45.000000	-45.000000	-3172.737328	-261.949511	21.082876	-180.000000	1794.975135	492.153457	10.195451	-10.521252	
12.5900	-39.477195	6.695027	1.196306	79.477501	767.531818	-42.473179	-1.557929	-45.000000	45.000000	-45.000000	44.999996	-2278.938431	-2629.480497	145.171801	-180.000000	1430.065109	-290.390506	20.331883	13.959733	18.491606	27.443640	-44.994748	-45.000000	-45.000000	-3172.616096	-262.000953	21.060625	-180.000000	1794.989645	492.649351	10.157493	-10.577582	
12.6000	-39.495029	6.773221	1.177876	77.918651	767.591362	-42.437705	-1.502908	-45.000000	45.000000	-45.000000	44.999992	-2279.013615	-2629.346884	145.133075	-180.000000	1430.016498	-290.328268	20.327806	13.969520	18.443256	27.462282	-44.990613	-45.000000	-45.000000	-3172.499425	-262.070632	21.019928	-180.000000	1795.019338	493.155419	10.171220	-10.653779	
